<svg xmlns="http://www.w3.org/2000/svg" height="40px" viewBox="0 -960 960 960" width="40px" fill="#e3e3e3"><path d="M235.33-100q-56.06 0-95.7-39.62Q100-179.24 100-235.29q0-56.04 39.62-95.71 39.62-39.67 95.67-39.67 56.04 0 95.71 39.64 39.67 39.63 39.67 95.7 0 22-6.84 42.5Q357-172.33 344-155v-20.33q32 14.33 66.67 21.5 34.66 7.16 69.33 7.16 139.58 0 236.46-96.87 96.87-96.88 96.87-236.46H880q0 83-31.5 156T763-197q-54 54-127 85.5T480-80q-45.92 0-89.79-10.17Q346.33-100.33 305-120q-16 10-33.5 15t-36.17 5Zm48.5-86.83Q304-207 304-235.33q0-28.34-20.17-48.5Q263.67-304 235.33-304q-28.33 0-48.5 20.17-20.16 20.16-20.16 48.5 0 28.33 20.16 48.5 20.17 20.16 48.5 20.16 28.34 0 48.5-20.16Zm196.22-157.84q-56.05 0-95.72-39.62-39.66-39.62-39.66-95.66 0-56.05 39.62-95.72 39.62-39.66 95.66-39.66 56.05 0 95.72 39.62 39.66 39.62 39.66 95.66 0 56.05-39.62 95.72-39.62 39.66-95.66 39.66ZM80-480q0-83 31.5-156T197-763q54-54 127-85.5T480-880q45.92 0 89.79 10.17Q613.67-859.67 655-840q16-9.67 33.5-14.5t36.17-4.83q55.79 0 95.23 39.48 39.43 39.48 39.43 95.33T819.85-629q-39.48 39.67-95.33 39.67T629-628.97q-39.67-39.63-39.67-95.7 0-22 6.84-42.5Q603-787.67 616-805v20.33q-32-14.33-66.67-21.5-34.66-7.16-69.33-7.16-139.58 0-236.46 96.87-96.87 96.88-96.87 236.46H80Zm644.67-176q28.33 0 48.16-20.17 19.84-20.16 19.84-48.5 0-28.33-19.84-48.16-19.83-19.84-48.16-19.84-28.34 0-48.5 19.84Q656-753 656-724.67q0 28.34 20.03 48.5Q696.06-656 724.67-656ZM235.33-235.33Zm489.34-489.34Z"/></svg>